# MagicaVoxel @ Ephtracy

# group
o 

# material
mtllib Tile.mtl
usemtl palette

# normals
vn -1 0 0
vn 1 0 0
vn 0 0 1
vn 0 0 -1
vn 0 -1 0
vn 0 1 0

# texcoords
vt 0.158203 0.5
vt 0.162109 0.5
vt 0.955078 0.5
vt 0.958984 0.5

# verts
v -0.5 0 0.5
v -0.5 0 -0.5
v -0.5 0.1 0.4
v -0.5 0.1 -0.1
v -0.5 0.1 -0.2
v -0.5 0.1 -0.4
v -0.5 0.5 0.3
v -0.5 0.5 -0.1
v -0.5 0.8 0.3
v -0.5 0.8 -0.2
v -0.5 0.9 0.4
v -0.5 0.9 -0.4
v -0.5 1 0.5
v -0.5 1 -0.5
v 0.5 0 0.5
v 0.5 0 -0.5
v 0.5 0.1 0.4
v 0.5 0.1 0.2
v 0.5 0.1 0.1
v 0.5 0.1 -0.4
v 0.5 0.5 0.1
v 0.5 0.5 -0.3
v 0.5 0.8 0.2
v 0.5 0.8 -0.3
v 0.5 0.9 0.4
v 0.5 0.9 -0.4
v 0.5 1 0.5
v 0.5 1 -0.5
v -0.5 0 0.5
v -0.5 1 0.5
v -0.4 0.1 0.5
v -0.4 0.9 0.5
v -0.3 0.9 0.5
v -0.3 1 0.5
v -0.2 0.1 0.5
v -0.2 0.8 0.5
v -0.1 0.1 0.5
v -0.1 0.5 0.5
v -0.1 0.9 0.5
v -0.1 1 0.5
v 0.2 0.5 0.5
v 0.2 0.8 0.5
v 0.4 0.1 0.5
v 0.4 0.9 0.5
v 0.5 0 0.5
v 0.5 1 0.5
v -0.5 0 -0.5
v -0.5 1 -0.5
v -0.4 0.1 -0.5
v -0.4 0.9 -0.5
v -0.2 0.5 -0.5
v -0.2 0.8 -0.5
v 0.1 0.1 -0.5
v 0.1 0.5 -0.5
v 0.2 0.1 -0.5
v 0.2 0.8 -0.5
v 0.4 0.1 -0.5
v 0.4 0.9 -0.5
v 0.5 0 -0.5
v 0.5 1 -0.5
v -0.5 0 0.5
v 0.5 0 0.5
v -0.4 0 0.4
v 0.4 0 0.4
v -0.2 0 0.3
v 0.1 0 0.3
v 0.1 0 -0.1
v 0.4 0 -0.1
v -0.2 0 -0.2
v 0.4 0 -0.2
v -0.4 0 -0.4
v 0.4 0 -0.4
v -0.5 0 -0.5
v 0.5 0 -0.5
v -0.5 1 0.5
v -0.3 1 0.5
v -0.1 1 0.5
v 0.5 1 0.5
v -0.4 1 0.4
v -0.3 1 0.4
v -0.1 1 0.4
v 0.4 1 0.4
v -0.1 1 0.3
v 0.2 1 0.3
v -0.4 1 -0.1
v -0.1 1 -0.1
v -0.4 1 -0.2
v 0.2 1 -0.2
v -0.4 1 -0.4
v 0.4 1 -0.4
v -0.5 1 -0.5
v 0.5 1 -0.5

# faces
f 3/2/1 2/2/1 1/2/1
f 4/2/1 2/2/1 3/2/1
f 5/2/1 2/2/1 4/2/1
f 6/2/1 2/2/1 5/2/1
f 7/4/1 4/4/1 3/4/1
f 8/3/1 5/3/1 4/3/1
f 8/4/1 4/4/1 7/4/1
f 9/4/1 7/4/1 3/4/1
f 9/3/1 8/3/1 7/3/1
f 10/3/1 5/3/1 8/3/1
f 10/3/1 8/3/1 9/3/1
f 10/4/1 6/4/1 5/4/1
f 11/2/1 3/2/1 1/2/1
f 11/4/1 9/4/1 3/4/1
f 11/4/1 10/4/1 9/4/1
f 12/4/1 6/4/1 10/4/1
f 12/4/1 10/4/1 11/4/1
f 12/2/1 2/2/1 6/2/1
f 13/2/1 11/2/1 1/2/1
f 13/2/1 12/2/1 11/2/1
f 14/2/1 2/2/1 12/2/1
f 14/2/1 12/2/1 13/2/1
f 15/2/2 16/2/2 17/2/2
f 17/2/2 16/2/2 18/2/2
f 18/2/2 16/2/2 19/2/2
f 19/2/2 16/2/2 20/2/2
f 18/3/2 19/3/2 21/3/2
f 19/4/2 20/4/2 21/4/2
f 21/4/2 20/4/2 22/4/2
f 17/4/2 18/4/2 23/4/2
f 18/3/2 21/3/2 23/3/2
f 21/3/2 22/3/2 23/3/2
f 22/4/2 20/4/2 24/4/2
f 23/3/2 22/3/2 24/3/2
f 15/2/2 17/2/2 25/2/2
f 17/4/2 23/4/2 25/4/2
f 23/4/2 24/4/2 25/4/2
f 24/4/2 20/4/2 26/4/2
f 25/4/2 24/4/2 26/4/2
f 20/2/2 16/2/2 26/2/2
f 15/2/2 25/2/2 27/2/2
f 25/2/2 26/2/2 27/2/2
f 26/2/2 16/2/2 28/2/2
f 27/2/2 26/2/2 28/2/2
f 31/2/3 30/2/3 29/2/3
f 32/2/3 30/2/3 31/2/3
f 33/4/3 32/4/3 31/4/3
f 33/2/3 30/2/3 32/2/3
f 34/2/3 30/2/3 33/2/3
f 35/2/3 31/2/3 29/2/3
f 35/4/3 33/4/3 31/4/3
f 36/4/3 33/4/3 35/4/3
f 37/2/3 35/2/3 29/2/3
f 37/3/3 36/3/3 35/3/3
f 38/3/3 36/3/3 37/3/3
f 39/1/3 34/1/3 33/1/3
f 39/4/3 33/4/3 36/4/3
f 40/1/3 34/1/3 39/1/3
f 41/3/3 36/3/3 38/3/3
f 41/4/3 38/4/3 37/4/3
f 42/4/3 39/4/3 36/4/3
f 42/3/3 36/3/3 41/3/3
f 43/2/3 37/2/3 29/2/3
f 43/4/3 41/4/3 37/4/3
f 43/4/3 42/4/3 41/4/3
f 44/2/3 40/2/3 39/2/3
f 44/4/3 42/4/3 43/4/3
f 44/4/3 39/4/3 42/4/3
f 45/2/3 43/2/3 29/2/3
f 45/2/3 44/2/3 43/2/3
f 46/2/3 40/2/3 44/2/3
f 46/2/3 44/2/3 45/2/3
f 47/2/4 48/2/4 49/2/4
f 49/2/4 48/2/4 50/2/4
f 49/4/4 50/4/4 51/4/4
f 51/4/4 50/4/4 52/4/4
f 47/2/4 49/2/4 53/2/4
f 49/4/4 51/4/4 53/4/4
f 51/3/4 52/3/4 54/3/4
f 53/4/4 51/4/4 54/4/4
f 47/2/4 53/2/4 55/2/4
f 53/3/4 54/3/4 55/3/4
f 52/4/4 50/4/4 56/4/4
f 55/3/4 54/3/4 56/3/4
f 54/3/4 52/3/4 56/3/4
f 47/2/4 55/2/4 57/2/4
f 55/4/4 56/4/4 57/4/4
f 56/4/4 50/4/4 58/4/4
f 57/4/4 56/4/4 58/4/4
f 50/2/4 48/2/4 58/2/4
f 47/2/4 57/2/4 59/2/4
f 57/2/4 58/2/4 59/2/4
f 58/2/4 48/2/4 60/2/4
f 59/2/4 58/2/4 60/2/4
f 63/2/5 62/2/5 61/2/5
f 64/2/5 62/2/5 63/2/5
f 65/4/5 64/4/5 63/4/5
f 66/4/5 64/4/5 65/4/5
f 67/3/5 66/3/5 65/3/5
f 67/4/5 64/4/5 66/4/5
f 68/2/5 62/2/5 64/2/5
f 68/4/5 64/4/5 67/4/5
f 69/3/5 67/3/5 65/3/5
f 69/4/5 65/4/5 63/4/5
f 69/3/5 68/3/5 67/3/5
f 70/2/5 62/2/5 68/2/5
f 70/3/5 68/3/5 69/3/5
f 71/2/5 63/2/5 61/2/5
f 71/4/5 69/4/5 63/4/5
f 71/4/5 70/4/5 69/4/5
f 72/2/5 62/2/5 70/2/5
f 72/4/5 70/4/5 71/4/5
f 73/2/5 71/2/5 61/2/5
f 73/2/5 72/2/5 71/2/5
f 74/2/5 62/2/5 72/2/5
f 74/2/5 72/2/5 73/2/5
f 75/2/6 76/2/6 79/2/6
f 76/1/6 77/1/6 80/1/6
f 79/2/6 76/2/6 80/2/6
f 77/2/6 78/2/6 81/2/6
f 80/1/6 77/1/6 81/1/6
f 81/2/6 78/2/6 82/2/6
f 79/4/6 80/4/6 83/4/6
f 80/4/6 81/4/6 83/4/6
f 81/4/6 82/4/6 83/4/6
f 83/4/6 82/4/6 84/4/6
f 75/2/6 79/2/6 85/2/6
f 79/4/6 83/4/6 85/4/6
f 83/3/6 84/3/6 86/3/6
f 85/4/6 83/4/6 86/4/6
f 75/2/6 85/2/6 87/2/6
f 85/3/6 86/3/6 87/3/6
f 84/4/6 82/4/6 88/4/6
f 87/3/6 86/3/6 88/3/6
f 86/3/6 84/3/6 88/3/6
f 75/2/6 87/2/6 89/2/6
f 87/4/6 88/4/6 89/4/6
f 82/2/6 78/2/6 90/2/6
f 89/4/6 88/4/6 90/4/6
f 88/4/6 82/4/6 90/4/6
f 75/2/6 89/2/6 91/2/6
f 89/2/6 90/2/6 91/2/6
f 90/2/6 78/2/6 92/2/6
f 91/2/6 90/2/6 92/2/6
